# Blender 3.3.1
# www.blender.org
o Circle
v -1.701538 -0.000000 -3.376332
v -1.306512 -0.000000 -3.375984
v -1.153610 -0.000000 -3.099619
v -1.242218 -0.000000 -2.491696
v -0.987105 -0.000000 -2.109892
v -0.427108 -0.000000 -2.012332
v -0.219225 -0.000000 -1.748744
v -0.418996 -0.000000 -1.456872
v -0.800800 -0.000001 -1.201758
v -1.251169 -0.000002 -1.112174
v -1.701538 -0.000001 -1.201758
v -2.083343 -0.000000 -1.456872
v -2.338456 -0.000000 -1.838676
v -2.428041 -0.000000 -2.289046
v -2.338456 -0.000000 -2.739413
v -2.083343 -0.000000 -3.121219
v 0.823581 -0.000002 -0.049865
v 0.504960 -0.000002 -0.283374
v 0.544722 -0.000002 -0.596705
v 0.975162 -0.000002 -1.035046
v 1.264477 -0.000000 -1.493823
v 1.340515 -0.000000 -1.965453
v 1.418289 -0.000000 -2.300931
v 1.751850 -0.000000 -2.418555
v 2.210627 -0.000000 -2.399036
v 2.627012 -0.000000 -2.205437
v 2.937615 -0.000000 -1.867230
v 3.095148 -0.000000 -1.435906
v 3.075630 -0.000002 -0.977129
v 2.882030 -0.000002 -0.560743
v 2.543823 -0.000002 -0.250141
v 1.282359 -0.000002 -0.030347
v -0.278230 -0.000002 3.423871
v -0.672242 -0.000002 3.395580
v -0.672786 -0.000002 3.108862
v -0.806247 -0.000002 2.509186
v -2.760774 -0.000002 1.243876
v -3.312466 -0.000002 1.106948
v -3.501183 -0.000002 0.829315
v -3.281266 -0.000002 0.552305
v -2.882372 -0.000002 0.324839
v -2.426794 -0.000002 0.267338
v -1.983890 -0.000002 0.388556
v 0.238397 -0.000002 1.536226
v 0.465864 -0.000002 1.935122
v 0.523365 -0.000002 2.390698
v 0.402148 -0.000002 2.833602
v 0.120665 -0.000002 3.196404
v -1.701538 0.500000 -3.376332
v -2.083343 0.500000 -3.121219
v -2.338456 0.500000 -2.739413
v -2.428041 0.500000 -2.289045
v -2.338456 0.500000 -1.838676
v -2.083343 0.500000 -1.456872
v -1.701538 0.499998 -1.201758
v -1.251169 0.499998 -1.112173
v -0.800800 0.499998 -1.201758
v -0.418996 0.500000 -1.456872
v -0.219225 0.500000 -1.748744
v -0.427108 0.500000 -2.012332
v -0.987105 0.500000 -2.109892
v -1.242218 0.500000 -2.491696
v -1.153610 0.500000 -3.099619
v -1.306512 0.500000 -3.375984
v 0.823581 0.499998 -0.049865
v 1.282359 0.499998 -0.030347
v 2.543823 0.499998 -0.250141
v 2.882030 0.499998 -0.560743
v 3.075630 0.499998 -0.977129
v 3.095148 0.500000 -1.435906
v 2.937615 0.500000 -1.867230
v 2.627012 0.500000 -2.205437
v 2.210627 0.500000 -2.399036
v 1.751850 0.500000 -2.418555
v 1.418289 0.500000 -2.300931
v 1.340515 0.500000 -1.965453
v 1.264477 0.500000 -1.493822
v 0.975162 0.499998 -1.035046
v 0.544722 0.499998 -0.596705
v 0.504960 0.499998 -0.283374
v -0.278230 0.499998 3.423871
v 0.120665 0.499998 3.196404
v 0.402148 0.499998 2.833602
v 0.523365 0.499998 2.390698
v 0.465864 0.499998 1.935122
v 0.238397 0.499998 1.536226
v -1.983890 0.499998 0.388557
v -2.426794 0.499998 0.267338
v -2.882372 0.499998 0.324839
v -3.281266 0.499998 0.552305
v -3.501183 0.499998 0.829315
v -3.312466 0.499998 1.106948
v -2.760774 0.499998 1.243877
v -0.806247 0.499998 2.509186
v -0.672786 0.499998 3.108862
v -0.672242 0.499998 3.395580
vn -0.0000 -1.0000 -0.0000
vn -0.0000 1.0000 -0.0000
vn 0.1951 -0.0000 0.9808
vn 0.9645 -0.0000 0.2640
vn 0.9393 -0.0000 -0.3431
vn 0.5556 -0.0000 0.8315
vn 0.9921 -0.0000 -0.1252
vn 0.7365 -0.0000 -0.6764
vn 0.8252 -0.0000 0.5648
vn 0.8687 -0.0000 -0.4954
vn 0.4216 -0.0000 -0.9068
vn 0.7852 -0.0000 -0.6193
vn 0.4589 -0.0000 -0.8885
vn 0.0425 -0.0000 -0.9991
vn 0.1716 -0.0000 -0.9852
vn 0.2640 -0.0000 -0.9645
vn -0.3326 -0.0000 -0.9431
vn 0.8315 -0.0000 -0.5556
vn -0.1252 -0.0000 -0.9921
vn 0.0009 -0.0000 -1.0000
vn -0.9742 -0.0000 -0.2258
vn 0.9895 -0.0000 0.1442
vn -0.4954 -0.0000 -0.8687
vn -0.5556 -0.0000 -0.8315
vn -0.9873 -0.0000 -0.1592
vn 0.8750 -0.0000 -0.4841
vn -0.7832 -0.0000 -0.6218
vn -0.8315 -0.0000 -0.5556
vn -0.8459 -0.0000 -0.5334
vn -0.5911 -0.0000 0.8066
vn -0.8270 -0.0000 0.5622
vn -0.9808 -0.0000 -0.1951
vn -0.7135 -0.0000 -0.7006
vn -0.0425 -0.0000 0.9991
vn -0.2409 -0.0000 0.9706
vn -0.9808 -0.0000 0.1951
vn -0.9920 -0.0000 -0.1259
vn 0.1717 -0.0000 0.9852
vn -0.5434 -0.0000 0.8394
vn -0.8315 -0.0000 0.5556
vn -0.0716 -0.0000 0.9974
vn 0.6764 -0.0000 0.7365
vn -0.9761 -0.0000 0.2172
vn -0.5556 -0.0000 0.8315
vn 0.4954 -0.0000 0.8687
vn 0.9068 -0.0000 0.4216
vn -1.0000 -0.0000 0.0019
vn -0.1951 -0.0000 0.9808
vn 0.7901 -0.0000 0.6130
vn 0.9991 -0.0000 0.0425
s 1
f 1//1 2//1 3//1 4//1 5//1 6//1 7//1 8//1 9//1 10//1 11//1 12//1 13//1 14//1 15//1 16//1
f 17//1 18//1 19//1 20//1 21//1 22//1 23//1 24//1 25//1 26//1 27//1 28//1 29//1 30//1 31//1 32//1
f 33//1 34//1 35//1 36//1 37//1 38//1 39//1 40//1 41//1 42//1 43//1 44//1 45//1 46//1 47//1 48//1
f 49//2 50//2 51//2 52//2 53//2 54//2 55//2 56//2 57//2 58//2 59//2 60//2 61//2 62//2 63//2 64//2
f 65//2 66//2 67//2 68//2 69//2 70//2 71//2 72//2 73//2 74//2 75//2 76//2 77//2 78//2 79//2 80//2
f 81//2 82//2 83//2 84//2 85//2 86//2 87//2 88//2 89//2 90//2 91//2 92//2 93//2 94//2 95//2 96//2
f 10//3 9//3 57//3 56//3
f 47//4 46//4 84//4 83//4
f 28//5 27//5 71//5 70//5
f 9//6 8//6 58//6 57//6
f 46//7 45//7 85//7 84//7
f 27//8 26//8 72//8 71//8
f 8//9 7//9 59//9 58//9
f 45//10 44//10 86//10 85//10
f 26//11 25//11 73//11 72//11
f 7//12 6//12 60//12 59//12
f 44//13 43//13 87//13 86//13
f 25//14 24//14 74//14 73//14
f 6//15 5//15 61//15 60//15
f 43//16 42//16 88//16 87//16
f 24//17 23//17 75//17 74//17
f 5//18 4//18 62//18 61//18
f 42//19 41//19 89//19 88//19
f 2//20 1//20 49//20 64//20
f 23//21 22//21 76//21 75//21
f 4//22 3//22 63//22 62//22
f 41//23 40//23 90//23 89//23
f 1//24 16//24 50//24 49//24
f 22//25 21//25 77//25 76//25
f 3//26 2//26 64//26 63//26
f 40//27 39//27 91//27 90//27
f 16//28 15//28 51//28 50//28
f 21//29 20//29 78//29 77//29
f 18//30 17//30 65//30 80//30
f 39//31 38//31 92//31 91//31
f 15//32 14//32 52//32 51//32
f 20//33 19//33 79//33 78//33
f 17//34 32//34 66//34 65//34
f 38//35 37//35 93//35 92//35
f 14//36 13//36 53//36 52//36
f 19//37 18//37 80//37 79//37
f 32//38 31//38 67//38 66//38
f 37//39 36//39 94//39 93//39
f 13//40 12//40 54//40 53//40
f 34//41 33//41 81//41 96//41
f 31//42 30//42 68//42 67//42
f 36//43 35//43 95//43 94//43
f 12//44 11//44 55//44 54//44
f 33//45 48//45 82//45 81//45
f 30//46 29//46 69//46 68//46
f 35//47 34//47 96//47 95//47
f 11//48 10//48 56//48 55//48
f 48//49 47//49 83//49 82//49
f 29//50 28//50 70//50 69//50
o Limits_Plane.002
v -5.000000 -0.000001 5.000000
v 5.000000 -0.000001 5.000000
v 5.000000 0.499999 5.000000
v -5.000000 0.499999 5.000000
v 5.000000 0.000001 -5.000000
v -5.000000 0.000001 -5.000000
v -5.000000 0.500001 -5.000000
v 5.000000 0.500001 -5.000000
v -4.500000 -0.000001 4.500000
v -4.500000 0.000001 -4.500000
v -4.500000 0.500001 -4.500000
v -4.500000 0.499999 4.500000
v 4.500000 0.000001 -4.500000
v 4.500000 -0.000001 4.500000
v 4.500000 0.499999 4.500000
v 4.500000 0.500001 -4.500000
vn -0.0000 -0.0000 1.0000
vn -0.0000 -0.0000 -1.0000
vn 1.0000 -0.0000 -0.0000
vn -1.0000 -0.0000 -0.0000
vn -0.0000 1.0000 -0.0000
s 1
f 97//51 98//51 99//51 100//51
f 101//52 102//52 103//52 104//52
f 105//53 106//53 107//53 108//53
f 109//54 110//54 111//54 112//54
f 108//55 107//55 103//55 100//55
f 111//55 108//55 100//55 99//55
f 112//55 111//55 99//55 104//55
f 107//55 112//55 104//55 103//55
f 106//51 109//51 112//51 107//51
f 110//52 105//52 108//52 111//52
f 98//53 101//53 104//53 99//53
f 102//54 97//54 100//54 103//54
