# Blender v3.0.0 OBJ File: 'maze001.blend'
# www.blender.org
mtllib limits.mtl
o Limits_Plane.002
v -5.000000 0.000000 5.000000
v 5.000000 0.000000 5.000000
v -5.000000 0.000000 -5.000000
v 5.000000 0.000000 -5.000000
v -4.500000 0.000000 -4.500000
v -4.500000 0.000000 4.500000
v 4.500000 0.000000 4.500000
v 4.500000 0.000000 -4.500000
v -4.500000 0.500000 -4.500000
v -4.500000 0.500000 4.500000
v 4.500000 0.500000 4.500000
v 4.500000 0.500000 -4.500000
v -5.000000 0.500000 -5.000000
v -5.000000 0.500000 5.000000
v 5.000000 0.500000 5.000000
v 5.000000 0.500000 -5.000000
vt 0.000000 0.000000
vt 0.000000 0.000000
vt 0.000000 0.000000
vt 0.000000 0.000000
vt 0.000000 0.000000
vt 0.000000 0.000000
vt 0.000000 0.000000
vt 0.000000 0.000000
vt 0.050000 0.050000
vt 0.050000 0.950000
vt 0.050000 0.950000
vt 0.050000 0.050000
vt 0.950000 0.950000
vt 0.950000 0.050000
vt 0.950000 0.050000
vt 0.950000 0.950000
vt 0.000000 1.000000
vt 1.000000 0.000000
vt 1.000000 1.000000
vn 0.0000 0.0000 1.0000
vn 0.0000 0.0000 -1.0000
vn 1.0000 0.0000 0.0000
vn -1.0000 0.0000 0.0000
vn 0.0000 1.0000 0.0000
usemtl None
s off
f 1/1/1 2/2/1 15/3/1 14/4/1
f 4/5/2 3/6/2 13/7/2 16/8/2
f 6/9/3 5/10/3 9/11/3 10/12/3
f 8/13/4 7/14/4 11/15/4 12/16/4
f 10/12/5 9/11/5 13/17/5 14/4/5
f 11/15/5 10/12/5 14/4/5 15/18/5
f 12/16/5 11/15/5 15/18/5 16/19/5
f 9/11/5 12/16/5 16/19/5 13/17/5
f 5/10/1 8/13/1 12/16/1 9/11/1
f 7/14/2 6/9/2 10/12/2 11/15/2
f 2/2/3 4/5/3 16/8/3 15/3/3
f 3/6/4 1/1/4 14/4/4 13/7/4
